<svg width="400" height="400" xmlns="http://www.w3.org/2000/svg" xmlns:xlink="http://www.w3.org/1999/xlink" overflow="hidden"><defs><clipPath id="clip0"><rect x="9" y="92" width="400" height="400"/></clipPath><clipPath id="clip1"><rect x="10" y="92" width="399" height="399"/></clipPath><clipPath id="clip2"><rect x="10" y="92" width="399" height="399"/></clipPath><clipPath id="clip3"><rect x="10" y="92" width="399" height="399"/></clipPath></defs><g clip-path="url(#clip0)" transform="translate(-9 -92)"><g clip-path="url(#clip1)"><g clip-path="url(#clip2)"><g clip-path="url(#clip3)"><path d="M199.993 356.805C191.498 365.299 177.627 365.299 169.132 356.805L119.257 306.93C110.763 298.436 110.763 284.564 119.257 276.07 127.752 267.576 141.623 267.576 150.118 276.07L184.562 310.515 268.882 226.195C277.377 217.701 291.248 217.701 299.743 226.195 308.237 234.689 308.237 248.561 299.743 257.055L199.993 356.805ZM409 291.5C409 401.693 319.693 491 209.5 491 99.3074 491 10 401.693 10 291.5 10 181.307 99.3074 92 209.5 92 319.693 92 409 181.307 409 291.5ZM209.5 129.406C119.959 129.406 47.4062 201.959 47.4062 291.5 47.4062 381.041 119.959 453.594 209.5 453.594 299.041 453.594 371.594 381.041 371.594 291.5 371.594 201.959 299.041 129.406 209.5 129.406Z" stroke="#F66A0F" stroke-width="0.779276" stroke-linecap="butt" stroke-linejoin="miter" stroke-miterlimit="4" stroke-opacity="1" fill="#F66A0F" fill-rule="nonzero" fill-opacity="1"/></g></g></g></g></svg>