<svg width="640" height="512" xmlns="http://www.w3.org/2000/svg" xmlns:xlink="http://www.w3.org/1999/xlink" overflow="hidden"><defs><clipPath id="clip0"><rect x="320" y="104" width="640" height="512"/></clipPath></defs><g clip-path="url(#clip0)" transform="translate(-320 -104)"><path d="M639.9 424C697.31 424 743 377.44 743 320 743 262.56 696.46 216 639.9 216 582.49 216 536.8 262.56 536.8 320 535.9 377.4 582.5 424 639.9 424ZM689.9 456 590.1 456C511.6 456 448 515.7 448 589.3 448 604.1 460.7 616 476.4 616L803.6 616C819.3 616 832 604.1 832 589.3 832 515.7 768.4 456 689.9 456ZM832 264C876.18 264 912 228.18 912 184 912 139.82 876.2 104 832 104 787.82 104 752 139.82 752 184 752 228.18 787.8 264 832 264ZM503.9 320C503.9 314.551 504.882 309.37 505.509 304.09 494.6 298.1 482.6 296 469.9 296L408.08 296C359.44 296 320 337.8 320 389.3 320 399.6 327.887 408 337.62 408L537.12 408C516.7 384.2 503.9 353.7 503.9 320ZM448 264C492.18 264 528 228.18 528 184 528 139.82 492.2 104 448 104 403.82 104 368 139.82 368 184 368 228.18 403.82 264 448 264ZM871.9 296 810.06 296C797.26 296 785.18 299.037 774.2 304.24 774.8 309.5 775.8 314.6 775.8 320 775.8 353.71 763.02 384.21 742.64 408L942.34 408C952.1 408 960 399.6 960 389.3 960 337.8 920.6 296 871.9 296Z" fill="#F66A0F" fill-rule="nonzero" fill-opacity="1"/></g></svg>