<svg width="320" height="513" xmlns="http://www.w3.org/2000/svg" xmlns:xlink="http://www.w3.org/1999/xlink" overflow="hidden"><defs><clipPath id="clip0"><rect x="860" y="20" width="320" height="513"/></clipPath><clipPath id="clip1"><rect x="860" y="21" width="320" height="512"/></clipPath><clipPath id="clip2"><rect x="860" y="21" width="320" height="512"/></clipPath><clipPath id="clip3"><rect x="860" y="21" width="320" height="512"/></clipPath></defs><g clip-path="url(#clip0)" transform="translate(-860 -20)"><g clip-path="url(#clip1)"><g clip-path="url(#clip2)"><g clip-path="url(#clip3)"><path d="M1170.6 382.4C1183.1 394.9 1183.1 415.15 1170.6 427.65 1164.4 433.9 1156.2 437 1148 437 1139.8 437 1131.62 433.875 1125.38 427.625L1020 322.3 914.63 427.6C908.38 433.9 900.19 437 892 437 883.81 437 875.63 433.9 869.375 427.6 856.875 415.1 856.875 394.85 869.375 382.35L974.775 276.95 869.375 171.6C856.875 159.1 856.875 138.85 869.375 126.35 881.875 113.85 902.125 113.85 914.625 126.35L1020 231.8 1125.4 126.4C1137.9 113.9 1158.15 113.9 1170.65 126.4 1183.15 138.9 1183.15 159.15 1170.65 171.65L1065.25 277.05 1170.6 382.4Z" stroke="#F66A0F" stroke-width="1" stroke-linecap="butt" stroke-linejoin="miter" stroke-miterlimit="4" stroke-opacity="1" fill="#F66A0F" fill-rule="nonzero" fill-opacity="1"/></g></g></g></g></svg>