<svg width="578" height="660" xmlns="http://www.w3.org/2000/svg" xmlns:xlink="http://www.w3.org/1999/xlink" overflow="hidden"><defs><clipPath id="clip0"><rect x="286" y="-44" width="578" height="660"/></clipPath><clipPath id="clip1"><rect x="287" y="-44" width="577" height="660"/></clipPath><clipPath id="clip2"><rect x="287" y="-44" width="577" height="660"/></clipPath><clipPath id="clip3"><rect x="287" y="-44" width="577" height="660"/></clipPath></defs><g clip-path="url(#clip0)" transform="translate(-286 44)"><g clip-path="url(#clip1)"><g clip-path="url(#clip2)"><g clip-path="url(#clip3)"><path d="M0 123.643C0 100.885 18.4563 82.4286 41.2143 82.4286L535.786 82.4286C558.582 82.4286 577 100.885 577 123.643 577 146.44 558.582 164.857 535.786 164.857L41.2143 164.857C18.4563 164.857 0 146.44 0 123.643ZM0 329.714C0 306.918 18.4563 288.5 41.2143 288.5L535.786 288.5C558.582 288.5 577 306.918 577 329.714 577 352.511 558.582 370.929 535.786 370.929L41.2143 370.929C18.4563 370.929 0 352.511 0 329.714ZM535.786 577 41.2143 577C18.4563 577 0 558.582 0 535.786 0 512.989 18.4563 494.571 41.2143 494.571L535.786 494.571C558.582 494.571 577 512.989 577 535.786 577 558.582 558.582 577 535.786 577Z" fill="#F66A0F" fill-rule="nonzero" fill-opacity="1" transform="matrix(1 0 0 1.00087 287 -44)"/></g></g></g></g></svg>